<?xml version="1.0" standalone="no"?>
<!DOCTYPE svg PUBLIC "-//W3C//DTD SVG 20010904//EN"
 "http://www.w3.org/TR/2001/REC-SVG-20010904/DTD/svg10.dtd">
<svg version="1.0" xmlns="http://www.w3.org/2000/svg"
 width="392.000000pt" height="68.000000pt" viewBox="0 0 392.000000 68.000000"
 preserveAspectRatio="xMidYMid meet">

<g transform="translate(0.000000,68.000000) scale(0.100000,-0.100000)"
fill="#000000" stroke="none">
<path d="M1 493 c0 -182 1 -186 15 -140 32 103 142 171 275 170 120 -2 179
-52 179 -150 0 -144 -128 -251 -288 -241 -89 5 -135 29 -161 81 l-21 42 0
-127 0 -128 868 0 c636 1 862 4 847 12 -51 28 -71 92 -41 133 22 30 83 26 112
-9 13 -15 24 -34 24 -42 0 -18 4 -18 43 2 30 16 31 17 10 25 -35 13 -50 48
-69 162 -14 91 -20 107 -35 107 -30 0 -23 44 11 84 40 45 88 62 135 46 45 -15
60 -44 74 -145 22 -154 25 -158 62 -99 l22 36 -23 40 c-43 77 -10 171 61 171
82 0 93 -115 26 -257 -49 -103 -155 -213 -237 -244 l-55 -21 1043 0 1042 -1
-1 288 -1 287 -18 -55 c-10 -30 -34 -108 -53 -173 -32 -108 -34 -117 -16 -112
15 5 19 1 19 -18 0 -30 -46 -72 -90 -82 -34 -7 -92 9 -110 30 -10 12 -15 11
-32 -4 -48 -46 -137 -30 -182 32 -46 63 -13 222 59 286 56 49 111 59 191 36
18 -6 23 -1 31 33 9 33 8 43 -6 56 -23 24 -3 49 50 63 35 9 -94 11 -616 11
-363 0 -644 -3 -625 -7 51 -10 80 -29 90 -57 27 -69 -79 -115 -135 -59 -14 13
-25 31 -25 40 0 8 -4 15 -10 15 -14 0 -30 -35 -30 -64 0 -23 4 -26 38 -26 48
0 65 -12 60 -41 -2 -18 -12 -26 -40 -33 l-38 -10 -35 -112 c-38 -123 -40 -135
-24 -151 25 -25 -4 -33 -122 -33 -102 0 -119 2 -119 16 0 9 9 23 19 32 17 15
81 198 81 232 0 8 -10 24 -21 36 -26 28 -19 52 18 60 24 5 28 11 30 41 3 54
51 99 123 114 19 4 -350 7 -820 7 -470 0 -846 -3 -835 -5 48 -12 57 -49 30
-135 -8 -27 -12 -48 -9 -48 3 0 16 7 29 16 32 21 107 21 138 1 47 -30 51 -71
18 -180 -26 -90 -27 -97 -10 -92 15 5 19 1 19 -15 0 -73 -110 -116 -189 -75
-50 25 -53 65 -14 176 29 82 28 98 -6 80 -14 -8 -29 -41 -50 -108 -25 -82 -28
-100 -17 -113 29 -33 9 -40 -120 -40 -101 0 -124 3 -124 14 0 8 9 21 20 29 15
10 38 70 81 213 58 188 60 199 43 211 -27 20 -7 45 47 60 36 9 -14 12 -283 12
l-328 1 1 -187z m1188 26 c17 -6 36 -20 42 -31 11 -20 11 -20 32 0 28 25 91
43 128 35 16 -3 41 -19 54 -35 l25 -30 30 26 c63 53 143 55 185 4 31 -37 31
-67 0 -165 -29 -91 -30 -97 -10 -90 22 9 28 -11 15 -43 -15 -36 -65 -60 -125
-60 -41 0 -52 5 -78 33 l-31 33 -27 -30 c-22 -25 -35 -30 -87 -34 -58 -4 -63
-3 -92 26 -38 38 -38 60 0 158 19 51 26 82 20 88 -18 18 -46 -23 -75 -114 -24
-76 -27 -94 -17 -111 7 -11 10 -24 7 -29 -4 -6 -60 -10 -126 -10 -102 0 -119
2 -119 16 0 9 9 23 19 32 11 10 35 67 55 132 31 101 33 116 21 131 -35 38 -10
55 116 78 3 1 20 -4 38 -10z m1658 -11 c40 -12 80 -58 89 -102 15 -84 -52
-203 -140 -248 -57 -30 -172 -36 -231 -14 -67 26 -95 65 -95 132 0 179 183
291 377 232z m483 -7 c125 -58 95 -255 -52 -336 -48 -27 -62 -30 -143 -30
-103 0 -144 16 -175 68 -53 86 5 233 113 288 76 39 186 44 257 10z"/>
<path d="M1477 392 c-14 -15 -56 -131 -57 -154 0 -20 45 1 51 23 4 13 16 48
28 77 27 67 15 95 -22 54z"/>
<path d="M2717 433 c-32 -37 -83 -233 -60 -233 20 0 42 37 67 112 37 110 34
166 -7 121z"/>
<path d="M3181 418 c-24 -38 -64 -184 -57 -204 10 -27 27 -14 50 39 27 61 58
176 50 188 -10 17 -24 9 -43 -23z"/>
<path d="M246 423 c-24 -48 -56 -155 -56 -190 0 -71 39 -25 75 90 14 43 25 89
25 103 0 33 -26 31 -44 -3z"/>
<path d="M3638 433 c-24 -27 -35 -53 -47 -110 -12 -58 -6 -86 17 -81 13 3 71
160 72 196 0 18 -24 15 -42 -5z"/>
</g>
</svg>
